<svg xmlns="http://www.w3.org/2000/svg" xmlns:svg="http://www.w3.org/2000/svg" id="svg3051" width="64" height="64" version="1.1"><metadata id="metadata3056"/><g id="layer2" opacity="1"><path id="path3754" fill="#78786e" fill-opacity="1" stroke="#dfdbd2" stroke-dasharray="none" stroke-linecap="round" stroke-linejoin="round" stroke-miterlimit="4" stroke-opacity="1" stroke-width="0" d="m 9.0260416,30.558118 0,11.550202 47.9376864,0.202635 0.01522,-6.385773 C 58.679532,30.549057 32.507225,18.910003 30.542385,23.200802 28.313801,28.067561 25.36918,36.414979 20.930981,35.868266 17.613699,35.383132 15.367695,35.262514 9.0260416,30.558118 z"/><rect id="rect3752" width="55.451" height="31.205" x="6.135" y="18.947" fill="none" stroke="#78786e" stroke-dasharray="none" stroke-linecap="butt" stroke-linejoin="round" stroke-miterlimit="4" stroke-opacity="1" stroke-width="2.197" ry="2.854"/><rect id="rect4946" width="55.858" height="32.059" x="4.162" y="16.429" fill="#000" fill-opacity="0" stroke="#f6f1ec" stroke-dasharray="none" stroke-linecap="butt" stroke-linejoin="round" stroke-miterlimit="4" stroke-opacity="1" stroke-width="2.235" ry="2.932"/><path id="path4954" fill="#dfdbd2" fill-opacity="1" stroke="#d7d2c8" stroke-dasharray="none" stroke-linecap="round" stroke-linejoin="round" stroke-miterlimit="4" stroke-opacity="1" stroke-width="0" d="m 9.0260416,32.972867 0,11.142604 45.2267504,0.195484 0.186888,-7.037433 C 56.080741,32.087117 34.096153,21.209601 32.200079,25.34898 30.049492,30.043995 25.830363,38.973848 21.547496,38.446428 18.346315,37.978414 15.145744,37.511249 9.0260416,32.972867 z"/></g></svg>
