<svg xmlns="http://www.w3.org/2000/svg" xmlns:svg="http://www.w3.org/2000/svg" id="svg3051" width="64" height="64" version="1.1"><defs id="defs3053"><filter id="filter3780" width="1" height="1" x="0" y="0" color-interpolation-filters="sRGB"><feColorMatrix id="feColorMatrix3782" result="fbSourceGraphic" type="saturate" values="1"/><feColorMatrix id="feColorMatrix3784" in="fbSourceGraphic" values="-1 0 0 0 1 0 -1 0 0 1 0 0 -1 0 1 0 0 0 1 0"/></filter><filter id="filter3786" width="1" height="1" x="0" y="0" color-interpolation-filters="sRGB"><feColorMatrix id="feColorMatrix3788" result="fbSourceGraphic" type="saturate" values="1"/><feColorMatrix id="feColorMatrix3790" in="fbSourceGraphic" values="-1 0 0 0 1 0 -1 0 0 1 0 0 -1 0 1 0 0 0 1 0"/></filter><filter id="filter3792" width="1" height="1" x="0" y="0" color-interpolation-filters="sRGB"><feColorMatrix id="feColorMatrix3794" result="fbSourceGraphic" type="saturate" values="1"/><feColorMatrix id="feColorMatrix3796" in="fbSourceGraphic" values="-1 0 0 0 1 0 -1 0 0 1 0 0 -1 0 1 0 0 0 1 0"/></filter><filter id="filter3798" width="1" height="1" x="0" y="0" color-interpolation-filters="sRGB"><feColorMatrix id="feColorMatrix3800" result="fbSourceGraphic" type="saturate" values="1"/><feColorMatrix id="feColorMatrix3802" in="fbSourceGraphic" values="-1 0 0 0 1 0 -1 0 0 1 0 0 -1 0 1 0 0 0 1 0"/></filter></defs><metadata id="metadata3056"/><g id="layer2" opacity="1"><path id="path3754" fill="#78786e" fill-opacity="1" stroke="#dfdbd2" stroke-dasharray="none" stroke-linecap="round" stroke-linejoin="round" stroke-miterlimit="4" stroke-opacity="1" stroke-width="0" d="m 9.0260416,30.558118 0,11.550202 47.9376864,0.202635 0.01522,-6.385773 C 58.679532,30.549057 32.507225,18.910003 30.542385,23.200802 28.313801,28.067561 25.36918,36.414979 20.930981,35.868266 17.613699,35.383132 15.367695,35.262514 9.0260416,30.558118 z" filter="url(#filter3780)"/><rect id="rect3752" width="55.451" height="31.205" x="6.135" y="19.493" fill="none" stroke="#78786e" stroke-dasharray="none" stroke-linecap="butt" stroke-linejoin="round" stroke-miterlimit="4" stroke-opacity="1" stroke-width="2.197" filter="url(#filter3786)" ry="2.854" transform="matrix(1,0,0,1.0453845,0,-2.3008943)"/><rect id="rect4946" width="55.858" height="32.059" x="4.162" y="16.429" fill="none" stroke="#f0f0d2" stroke-dasharray="none" stroke-linecap="butt" stroke-linejoin="round" stroke-miterlimit="4" stroke-opacity="1" stroke-width="2.235" filter="url(#filter3792)" ry="2.932"/><path id="path4954" fill="#dfdbd2" fill-opacity="1" stroke="#d7d2c8" stroke-dasharray="none" stroke-linecap="round" stroke-linejoin="round" stroke-miterlimit="4" stroke-opacity="1" stroke-width="0" d="m 9.0260416,32.972867 0,11.142604 45.2267504,0.195484 0.186888,-7.037433 C 56.080741,32.087117 34.096153,21.209601 32.200079,25.34898 30.049492,30.043995 25.830363,38.973848 21.547496,38.446428 18.346315,37.978414 15.145744,37.511249 9.0260416,32.972867 z" filter="url(#filter3798)"/></g></svg>
